<svg xmlns="http://www.w3.org/2000/svg" xmlns:xlink="http://www.w3.org/1999/xlink" width="2190" zoomAndPan="magnify" viewBox="0 0 1642.5 809.999993" height="1080" preserveAspectRatio="xMidYMid meet" version="1.0"><defs><g/><clipPath id="92eb0e5271"><path d="M 0.703125 0.839844 L 1409 0.839844 L 1409 535.160156 L 0.703125 535.160156 Z M 0.703125 0.839844 " clip-rule="nonzero"/></clipPath><clipPath id="1078726464"><rect x="0" width="1409" y="0" height="536"/></clipPath><clipPath id="8f2a5fed45"><path d="M 1292.765625 23.480469 L 1521.269531 23.480469 L 1521.269531 137.730469 L 1292.765625 137.730469 Z M 1292.765625 23.480469 " clip-rule="nonzero"/></clipPath><clipPath id="3256ad3d84"><path d="M 1464.144531 23.480469 C 1495.695312 23.480469 1521.269531 49.054688 1521.269531 80.605469 C 1521.269531 112.152344 1495.695312 137.730469 1464.144531 137.730469 L 1349.894531 137.730469 C 1318.34375 137.730469 1292.765625 112.152344 1292.765625 80.605469 C 1292.765625 49.054688 1318.34375 23.480469 1349.894531 23.480469 Z M 1464.144531 23.480469 " clip-rule="nonzero"/></clipPath><clipPath id="c3ba8b34a5"><path d="M 0.765625 0.480469 L 229.269531 0.480469 L 229.269531 114.730469 L 0.765625 114.730469 Z M 0.765625 0.480469 " clip-rule="nonzero"/></clipPath><clipPath id="ba3072623b"><path d="M 172.144531 0.480469 C 203.695312 0.480469 229.269531 26.054688 229.269531 57.605469 C 229.269531 89.152344 203.695312 114.730469 172.144531 114.730469 L 57.894531 114.730469 C 26.34375 114.730469 0.765625 89.152344 0.765625 57.605469 C 0.765625 26.054688 26.34375 0.480469 57.894531 0.480469 Z M 172.144531 0.480469 " clip-rule="nonzero"/></clipPath><clipPath id="de488efc36"><rect x="0" width="230" y="0" height="115"/></clipPath><clipPath id="361eeed4de"><path d="M 1292.773438 23.480469 L 1521.261719 23.480469 L 1521.261719 137.574219 L 1292.773438 137.574219 Z M 1292.773438 23.480469 " clip-rule="nonzero"/></clipPath><clipPath id="5f7bc0d8f4"><path d="M 1464.136719 23.480469 C 1495.6875 23.480469 1521.261719 49.054688 1521.261719 80.601562 C 1521.261719 112.148438 1495.6875 137.722656 1464.136719 137.722656 L 1349.894531 137.722656 C 1318.347656 137.722656 1292.773438 112.148438 1292.773438 80.601562 C 1292.773438 49.054688 1318.347656 23.480469 1349.894531 23.480469 Z M 1464.136719 23.480469 " clip-rule="nonzero"/></clipPath><clipPath id="9506686ae3"><rect x="0" width="136" y="0" height="85"/></clipPath><clipPath id="ddd17244a1"><rect x="0" width="1536" y="0" height="536"/></clipPath></defs><g transform="matrix(1, 0, 0, 1, 60, 137)"><g clip-path="url(#ddd17244a1)"><g clip-path="url(#92eb0e5271)"><g transform="matrix(1, 0, 0, 1, -0.000000000000014211, -0.000000000000085265)"><g clip-path="url(#1078726464)"><g fill="#000000" fill-opacity="1"><g transform="translate(0.729844, 422.079565)"><g><path d="M 163.375 -211.171875 L 220.5625 -211.171875 L 220.5625 0 L 163.375 0 L 163.375 -23.6875 C 151.664062 -8.4375 133.96875 -0.8125 110.28125 -0.8125 C 81.414062 -0.539062 56.632812 -10.617188 35.9375 -31.046875 C 15.25 -51.460938 4.769531 -76.238281 4.5 -105.375 C 4.21875 -134.238281 14.289062 -159.019531 34.71875 -179.71875 C 55.144531 -200.414062 79.925781 -210.898438 109.0625 -211.171875 C 133.019531 -211.171875 151.125 -203.410156 163.375 -187.890625 Z M 146.21875 -69.4375 C 156.300781 -79.507812 161.34375 -91.765625 161.34375 -106.203125 C 161.34375 -120.898438 156.164062 -133.148438 145.8125 -142.953125 C 135.46875 -153.304688 123.351562 -158.207031 109.46875 -157.65625 C 95.03125 -157.65625 82.773438 -152.617188 72.703125 -142.546875 C 62.628906 -132.472656 57.59375 -120.222656 57.59375 -105.796875 C 57.59375 -91.628906 62.765625 -79.375 73.109375 -69.03125 C 83.179688 -58.957031 95.4375 -53.921875 109.875 -53.921875 C 124.582031 -54.460938 136.695312 -59.632812 146.21875 -69.4375 Z M 146.21875 -69.4375 "/></g></g></g><g fill="#000000" fill-opacity="1"><g transform="translate(233.544913, 422.079565)"><g><path d="M 69.4375 -283.875 L 69.4375 0 L 12.25 0 L 12.25 -283.875 Z M 69.4375 -283.875 "/></g></g><g transform="translate(315.234415, 422.079565)"><g><path d="M 163.375 -211.171875 L 220.5625 -211.171875 L 220.5625 0 L 163.375 0 L 163.375 -23.6875 C 151.664062 -8.4375 133.96875 -0.8125 110.28125 -0.8125 C 81.414062 -0.539062 56.632812 -10.617188 35.9375 -31.046875 C 15.25 -51.460938 4.769531 -76.238281 4.5 -105.375 C 4.21875 -134.238281 14.289062 -159.019531 34.71875 -179.71875 C 55.144531 -200.414062 79.925781 -210.898438 109.0625 -211.171875 C 133.019531 -211.171875 151.125 -203.410156 163.375 -187.890625 Z M 146.21875 -69.4375 C 156.300781 -79.507812 161.34375 -91.765625 161.34375 -106.203125 C 161.34375 -120.898438 156.164062 -133.148438 145.8125 -142.953125 C 135.46875 -153.304688 123.351562 -158.207031 109.46875 -157.65625 C 95.03125 -157.65625 82.773438 -152.617188 72.703125 -142.546875 C 62.628906 -132.472656 57.59375 -120.222656 57.59375 -105.796875 C 57.59375 -91.628906 62.765625 -79.375 73.109375 -69.03125 C 83.179688 -58.957031 95.4375 -53.921875 109.875 -53.921875 C 124.582031 -54.460938 136.695312 -59.632812 146.21875 -69.4375 Z M 146.21875 -69.4375 "/></g></g></g><g fill="#000000" fill-opacity="1"><g transform="translate(548.049461, 422.079565)"><g><path d="M 163.796875 -210.359375 L 163.796875 -153.171875 L 116.8125 -153.171875 L 116.8125 0 L 59.640625 0 L 59.640625 -153.171875 L 12.25 -153.171875 L 12.25 -210.359375 L 59.640625 -210.359375 L 59.640625 -283.875 L 116.8125 -283.875 L 116.8125 -210.359375 Z M 163.796875 -210.359375 "/></g></g><g transform="translate(724.090338, 422.079565)"><g><path d="M 69.03125 -284.6875 L 69.03125 -236.5 L 12.25 -236.5 L 12.25 -284.6875 Z M 69.4375 -209.9375 L 69.4375 0 L 12.25 0 L 12.25 -209.9375 Z M 69.4375 -209.9375 "/></g></g></g><g fill="#000000" fill-opacity="1"><g transform="translate(805.77983, 422.079565)"><g><path d="M 69.4375 -178.90625 C 74.0625 -191.976562 81.820312 -201.097656 92.71875 -206.265625 C 103.34375 -211.441406 119.273438 -214.03125 140.515625 -214.03125 L 140.515625 -155.625 C 119.816406 -155.625 102.523438 -148.539062 88.640625 -134.375 C 75.835938 -121.851562 69.4375 -108.101562 69.4375 -93.125 L 69.4375 0 L 12.25 0 L 12.25 -210.359375 L 69.4375 -210.359375 Z M 69.4375 -178.90625 "/></g></g></g><g fill="#000000" fill-opacity="1"><g transform="translate(942.609706, 422.079565)"><g><path d="M 109.0625 -210.359375 C 138.195312 -210.628906 162.972656 -200.550781 183.390625 -180.125 C 204.085938 -159.425781 214.4375 -134.648438 214.4375 -105.796875 C 214.707031 -76.648438 204.632812 -51.867188 184.21875 -31.453125 C 163.789062 -10.753906 139.144531 -0.269531 110.28125 0 C 81.144531 0.269531 56.226562 -9.800781 35.53125 -30.21875 C 14.84375 -50.644531 4.5 -75.425781 4.5 -104.5625 C 4.21875 -133.695312 14.289062 -158.476562 34.71875 -178.90625 C 55.144531 -199.59375 79.925781 -210.078125 109.0625 -210.359375 Z M 146.21875 -68.625 C 156.300781 -78.695312 161.34375 -90.945312 161.34375 -105.375 C 161.34375 -119.539062 156.164062 -131.796875 145.8125 -142.140625 C 135.46875 -151.941406 123.21875 -156.84375 109.0625 -156.84375 C 94.894531 -156.84375 82.773438 -151.804688 72.703125 -141.734375 C 62.628906 -131.109375 57.59375 -118.851562 57.59375 -104.96875 C 57.59375 -90.8125 62.765625 -78.5625 73.109375 -68.21875 C 83.179688 -58.132812 95.4375 -53.09375 109.875 -53.09375 C 124.582031 -53.644531 136.695312 -58.820312 146.21875 -68.625 Z M 146.21875 -68.625 "/></g></g></g><g fill="#000000" fill-opacity="1"><g transform="translate(1161.53762, 422.079565)"><g><path d="M 157.25 0 L 89.046875 -81.6875 L 69.4375 -62.5 L 69.4375 0 L 12.25 0 L 12.25 -283.875 L 69.4375 -283.875 L 69.4375 -143.359375 L 136.421875 -210.359375 L 217.296875 -209.9375 L 129.078125 -122.125 L 233.234375 0 Z M 157.25 0 "/></g></g></g></g></g></g><g clip-path="url(#8f2a5fed45)"><g clip-path="url(#3256ad3d84)"><g transform="matrix(1, 0, 0, 1, 1292, 23)"><g clip-path="url(#de488efc36)"><g clip-path="url(#c3ba8b34a5)"><g clip-path="url(#ba3072623b)"><path fill="#ffffff" d="M 0.765625 0.480469 L 229.269531 0.480469 L 229.269531 114.730469 L 0.765625 114.730469 Z M 0.765625 0.480469 " fill-opacity="1" fill-rule="nonzero"/></g></g></g></g></g></g><g clip-path="url(#361eeed4de)"><g clip-path="url(#5f7bc0d8f4)"><path stroke-linecap="butt" transform="matrix(0.597356, 0, 0, 0.597356, 1292.767326, 23.478542)" fill="none" stroke-linejoin="miter" d="M 286.880036 0.00322498 C 339.697456 0.00322498 382.509844 42.815612 382.509844 95.626493 C 382.509844 148.437375 339.697456 191.249762 286.880036 191.249762 L 95.633499 191.249762 C 42.822618 191.249762 0.0102304 148.437375 0.0102304 95.626493 C 0.0102304 42.815612 42.822618 0.00322498 95.633499 0.00322498 Z M 286.880036 0.00322498 " stroke="#000000" stroke-width="10.041213" stroke-opacity="1" stroke-miterlimit="4"/></g></g><g transform="matrix(1, 0, 0, 1, 1339, 38)"><g clip-path="url(#9506686ae3)"><g fill="#000000" fill-opacity="1"><g transform="translate(1.204325, 66.804488)"><g><path d="M 21.625 -33.046875 C 26.195312 -32.992188 30.085938 -31.34375 33.296875 -28.09375 C 36.503906 -24.84375 38.085938 -20.953125 38.046875 -16.421875 C 38.003906 -11.847656 36.359375 -7.957031 33.109375 -4.75 C 29.859375 -1.539062 25.960938 0.0390625 21.421875 0 C 17.535156 0 14.050781 -1.257812 10.96875 -3.78125 L 10.96875 0 L 1.984375 0 L 1.921875 -44.78125 L 10.90625 -44.78125 L 10.90625 -29.125 C 13.988281 -31.738281 17.5625 -33.046875 21.625 -33.046875 Z M 27.265625 -10.71875 C 28.804688 -12.257812 29.617188 -14.179688 29.703125 -16.484375 C 29.703125 -18.671875 28.910156 -20.597656 27.328125 -22.265625 C 25.742188 -23.847656 23.820312 -24.640625 21.5625 -24.640625 C 19.332031 -24.640625 17.40625 -23.867188 15.78125 -22.328125 C 14.195312 -20.742188 13.40625 -18.816406 13.40625 -16.546875 C 13.320312 -14.328125 14.09375 -12.40625 15.71875 -10.78125 C 17.257812 -9.238281 19.1875 -8.425781 21.5 -8.34375 C 23.757812 -8.34375 25.679688 -9.132812 27.265625 -10.71875 Z M 27.265625 -10.71875 "/></g></g></g><g fill="#000000" fill-opacity="1"><g transform="translate(40.272875, 66.804488)"><g><path d="M 33.75 -15.078125 C 33.789062 -14.179688 33.789062 -13.644531 33.75 -13.46875 L 9.625 -13.53125 C 9.96875 -12.550781 10.585938 -11.613281 11.484375 -10.71875 C 13.148438 -9.132812 15.078125 -8.34375 17.265625 -8.34375 C 19.566406 -8.425781 21.488281 -9.238281 23.03125 -10.78125 L 23.28125 -11.03125 L 31.625 -8.40625 C 29.789062 -5.539062 27.867188 -3.488281 25.859375 -2.25 C 23.585938 -0.789062 20.742188 -0.0390625 17.328125 0 C 12.785156 0.0390625 8.890625 -1.539062 5.640625 -4.75 C 2.390625 -7.957031 0.742188 -11.847656 0.703125 -16.421875 C 0.660156 -20.953125 2.242188 -24.84375 5.453125 -28.09375 C 8.660156 -31.34375 12.550781 -32.992188 17.125 -33.046875 C 21.664062 -33.085938 25.5625 -31.503906 28.8125 -28.296875 C 32.0625 -25.085938 33.707031 -21.191406 33.75 -16.609375 Z M 17.1875 -24.640625 C 14.925781 -24.640625 13.003906 -23.847656 11.421875 -22.265625 C 10.609375 -21.367188 10.03125 -20.46875 9.6875 -19.5625 L 24.765625 -19.5625 C 24.421875 -20.46875 23.820312 -21.390625 22.96875 -22.328125 C 21.34375 -23.867188 19.414062 -24.640625 17.1875 -24.640625 Z M 17.1875 -24.640625 "/></g></g></g><g fill="#000000" fill-opacity="1"><g transform="translate(72.477167, 66.804488)"><g><path d="M 25.734375 -33.046875 L 25.734375 -24.0625 L 18.34375 -24.0625 L 18.34375 0 L 9.359375 0 L 9.359375 -24.0625 L 1.921875 -24.0625 L 1.921875 -33.046875 L 9.359375 -33.046875 L 9.359375 -44.59375 L 18.34375 -44.59375 L 18.34375 -33.046875 Z M 25.734375 -33.046875 "/></g></g></g><g fill="#000000" fill-opacity="1"><g transform="translate(98.266263, 66.804488)"><g><path d="M 25.65625 -33.171875 L 34.640625 -33.171875 L 34.640625 0 L 25.65625 0 L 25.65625 -3.71875 C 23.820312 -1.320312 21.046875 -0.125 17.328125 -0.125 C 12.785156 -0.0820312 8.890625 -1.664062 5.640625 -4.875 C 2.390625 -8.082031 0.742188 -11.972656 0.703125 -16.546875 C 0.660156 -21.085938 2.242188 -24.984375 5.453125 -28.234375 C 8.660156 -31.484375 12.550781 -33.128906 17.125 -33.171875 C 20.894531 -33.171875 23.738281 -31.953125 25.65625 -29.515625 Z M 22.96875 -10.90625 C 24.550781 -12.488281 25.34375 -14.414062 25.34375 -16.6875 C 25.34375 -18.988281 24.53125 -20.910156 22.90625 -22.453125 C 21.28125 -24.078125 19.375 -24.847656 17.1875 -24.765625 C 14.925781 -24.765625 13.003906 -23.972656 11.421875 -22.390625 C 9.835938 -20.804688 9.046875 -18.878906 9.046875 -16.609375 C 9.046875 -14.390625 9.859375 -12.46875 11.484375 -10.84375 C 13.066406 -9.257812 14.992188 -8.46875 17.265625 -8.46875 C 19.566406 -8.550781 21.46875 -9.363281 22.96875 -10.90625 Z M 22.96875 -10.90625 "/></g></g></g></g></g></g></g></svg>