<svg xmlns="http://www.w3.org/2000/svg" xmlns:xlink="http://www.w3.org/1999/xlink" width="2190" zoomAndPan="magnify" viewBox="0 0 1642.5 809.999993" height="1080" preserveAspectRatio="xMidYMid meet" version="1.0"><defs><g/><clipPath id="e906d482f7"><path d="M 0.976562 0.839844 L 1376 0.839844 L 1376 523.160156 L 0.976562 523.160156 Z M 0.976562 0.839844 " clip-rule="nonzero"/></clipPath><clipPath id="fa3d6ab116"><rect x="0" width="1376" y="0" height="524"/></clipPath><clipPath id="1c771425af"><path d="M 1263.640625 22.773438 L 1486.933594 22.773438 L 1486.933594 134.421875 L 1263.640625 134.421875 Z M 1263.640625 22.773438 " clip-rule="nonzero"/></clipPath><clipPath id="d23dd0db3d"><path d="M 1431.113281 22.773438 C 1461.941406 22.773438 1486.933594 47.765625 1486.933594 78.597656 C 1486.933594 109.429688 1461.941406 134.421875 1431.113281 134.421875 L 1319.464844 134.421875 C 1288.632812 134.421875 1263.640625 109.429688 1263.640625 78.597656 C 1263.640625 47.765625 1288.632812 22.773438 1319.464844 22.773438 Z M 1431.113281 22.773438 " clip-rule="nonzero"/></clipPath><clipPath id="1e19b33de4"><path d="M 0.640625 0.773438 L 223.933594 0.773438 L 223.933594 112.421875 L 0.640625 112.421875 Z M 0.640625 0.773438 " clip-rule="nonzero"/></clipPath><clipPath id="84e6ae1f9a"><path d="M 168.113281 0.773438 C 198.941406 0.773438 223.933594 25.765625 223.933594 56.597656 C 223.933594 87.429688 198.941406 112.421875 168.113281 112.421875 L 56.464844 112.421875 C 25.632812 112.421875 0.640625 87.429688 0.640625 56.597656 C 0.640625 25.765625 25.632812 0.773438 56.464844 0.773438 Z M 168.113281 0.773438 " clip-rule="nonzero"/></clipPath><clipPath id="7157fd3727"><rect x="0" width="224" y="0" height="113"/></clipPath><clipPath id="cd4d538084"><path d="M 1263.644531 22.773438 L 1486.925781 22.773438 L 1486.925781 134.269531 L 1263.644531 134.269531 Z M 1263.644531 22.773438 " clip-rule="nonzero"/></clipPath><clipPath id="306a527f2b"><path d="M 1431.105469 22.773438 C 1461.933594 22.773438 1486.925781 47.765625 1486.925781 78.59375 C 1486.925781 109.421875 1461.933594 134.414062 1431.105469 134.414062 L 1319.464844 134.414062 C 1288.636719 134.414062 1263.644531 109.421875 1263.644531 78.59375 C 1263.644531 47.765625 1288.636719 22.773438 1319.464844 22.773438 Z M 1431.105469 22.773438 " clip-rule="nonzero"/></clipPath><clipPath id="67a0b4375f"><rect x="0" width="133" y="0" height="83"/></clipPath><clipPath id="78108a85df"><rect x="0" width="1501" y="0" height="524"/></clipPath></defs><g transform="matrix(1, 0, 0, 1, 77, 143)"><g clip-path="url(#78108a85df)"><g clip-path="url(#e906d482f7)"><g transform="matrix(1, 0, 0, 1, -0.000000000000014211, -0.000000000000113687)"><g clip-path="url(#fa3d6ab116)"><g fill="#ffffff" fill-opacity="1"><g transform="translate(1.0655, 412.305616)"><g><path d="M 159.65625 -206.359375 L 215.53125 -206.359375 L 215.53125 0 L 159.65625 0 L 159.65625 -23.15625 C 148.21875 -8.25 130.921875 -0.796875 107.765625 -0.796875 C 79.554688 -0.535156 55.34375 -10.378906 35.125 -30.328125 C 14.90625 -50.285156 4.660156 -74.503906 4.390625 -102.984375 C 4.117188 -131.179688 13.960938 -155.394531 33.921875 -175.625 C 53.878906 -195.84375 78.097656 -206.085938 106.578125 -206.359375 C 129.984375 -206.359375 147.675781 -198.773438 159.65625 -183.609375 Z M 142.890625 -67.859375 C 152.734375 -77.703125 157.65625 -89.675781 157.65625 -103.78125 C 157.65625 -118.144531 152.601562 -130.117188 142.5 -139.703125 C 132.382812 -149.804688 120.539062 -154.59375 106.96875 -154.0625 C 92.863281 -154.0625 80.890625 -149.140625 71.046875 -139.296875 C 61.203125 -129.453125 56.28125 -117.476562 56.28125 -103.375 C 56.28125 -89.539062 61.335938 -77.566406 71.453125 -67.453125 C 81.296875 -57.609375 93.269531 -52.6875 107.375 -52.6875 C 121.738281 -53.21875 133.578125 -58.273438 142.890625 -67.859375 Z M 142.890625 -67.859375 "/></g></g></g><g fill="#ffffff" fill-opacity="1"><g transform="translate(228.571699, 412.305616)"><g><path d="M 67.859375 -277.40625 L 67.859375 0 L 11.96875 0 L 11.96875 -277.40625 Z M 67.859375 -277.40625 "/></g></g></g><g fill="#ffffff" fill-opacity="1"><g transform="translate(308.398384, 412.305616)"><g><path d="M 159.65625 -206.359375 L 215.53125 -206.359375 L 215.53125 0 L 159.65625 0 L 159.65625 -23.15625 C 148.21875 -8.25 130.921875 -0.796875 107.765625 -0.796875 C 79.554688 -0.535156 55.34375 -10.378906 35.125 -30.328125 C 14.90625 -50.285156 4.660156 -74.503906 4.390625 -102.984375 C 4.117188 -131.179688 13.960938 -155.394531 33.921875 -175.625 C 53.878906 -195.84375 78.097656 -206.085938 106.578125 -206.359375 C 129.984375 -206.359375 147.675781 -198.773438 159.65625 -183.609375 Z M 142.890625 -67.859375 C 152.734375 -77.703125 157.65625 -89.675781 157.65625 -103.78125 C 157.65625 -118.144531 152.601562 -130.117188 142.5 -139.703125 C 132.382812 -149.804688 120.539062 -154.59375 106.96875 -154.0625 C 92.863281 -154.0625 80.890625 -149.140625 71.046875 -139.296875 C 61.203125 -129.453125 56.28125 -117.476562 56.28125 -103.375 C 56.28125 -89.539062 61.335938 -77.566406 71.453125 -67.453125 C 81.296875 -57.609375 93.269531 -52.6875 107.375 -52.6875 C 121.738281 -53.21875 133.578125 -58.273438 142.890625 -67.859375 Z M 142.890625 -67.859375 "/></g></g></g><g fill="#ffffff" fill-opacity="1"><g transform="translate(535.904582, 412.305616)"><g><path d="M 160.0625 -205.5625 L 160.0625 -149.671875 L 114.15625 -149.671875 L 114.15625 0 L 58.28125 0 L 58.28125 -149.671875 L 11.96875 -149.671875 L 11.96875 -205.5625 L 58.28125 -205.5625 L 58.28125 -277.40625 L 114.15625 -277.40625 L 114.15625 -205.5625 Z M 160.0625 -205.5625 "/></g></g></g><g fill="#ffffff" fill-opacity="1"><g transform="translate(707.931219, 412.305616)"><g><path d="M 67.453125 -278.203125 L 67.453125 -231.109375 L 11.96875 -231.109375 L 11.96875 -278.203125 Z M 67.859375 -205.15625 L 67.859375 0 L 11.96875 0 L 11.96875 -205.15625 Z M 67.859375 -205.15625 "/></g></g></g><g fill="#ffffff" fill-opacity="1"><g transform="translate(787.757904, 412.305616)"><g><path d="M 67.859375 -174.828125 C 72.378906 -187.597656 79.960938 -196.507812 90.609375 -201.5625 C 100.984375 -206.625 116.546875 -209.15625 137.296875 -209.15625 L 137.296875 -152.078125 C 117.078125 -152.078125 100.179688 -145.15625 86.609375 -131.3125 C 74.109375 -119.070312 67.859375 -105.632812 67.859375 -91 L 67.859375 0 L 11.96875 0 L 11.96875 -205.5625 L 67.859375 -205.5625 Z M 67.859375 -174.828125 "/></g></g></g><g fill="#ffffff" fill-opacity="1"><g transform="translate(921.467725, 412.305616)"><g><path d="M 106.578125 -205.5625 C 135.046875 -205.820312 159.257812 -195.972656 179.21875 -176.015625 C 199.4375 -155.796875 209.546875 -131.582031 209.546875 -103.375 C 209.816406 -74.90625 199.972656 -50.691406 180.015625 -30.734375 C 160.054688 -10.515625 135.972656 -0.269531 107.765625 0 C 79.296875 0.269531 54.945312 -9.570312 34.71875 -29.53125 C 14.5 -49.488281 4.390625 -73.707031 4.390625 -102.1875 C 4.117188 -130.65625 13.960938 -154.867188 33.921875 -174.828125 C 53.878906 -195.046875 78.097656 -205.289062 106.578125 -205.5625 Z M 142.890625 -67.0625 C 152.734375 -76.90625 157.65625 -88.878906 157.65625 -102.984375 C 157.65625 -116.816406 152.601562 -128.789062 142.5 -138.90625 C 132.382812 -148.476562 120.410156 -153.265625 106.578125 -153.265625 C 92.734375 -153.265625 80.890625 -148.34375 71.046875 -138.5 C 61.203125 -128.125 56.28125 -116.148438 56.28125 -102.578125 C 56.28125 -88.742188 61.335938 -76.769531 71.453125 -66.65625 C 81.296875 -56.8125 93.269531 -51.890625 107.375 -51.890625 C 121.738281 -52.421875 133.578125 -57.476562 142.890625 -67.0625 Z M 142.890625 -67.0625 "/></g></g></g><g fill="#ffffff" fill-opacity="1"><g transform="translate(1135.40338, 412.305616)"><g><path d="M 153.671875 0 L 87.015625 -79.828125 L 67.859375 -61.0625 L 67.859375 0 L 11.96875 0 L 11.96875 -277.40625 L 67.859375 -277.40625 L 67.859375 -140.09375 L 133.3125 -205.5625 L 212.34375 -205.15625 L 126.125 -119.34375 L 227.90625 0 Z M 153.671875 0 "/></g></g></g></g></g></g><g clip-path="url(#1c771425af)"><g clip-path="url(#d23dd0db3d)"><g transform="matrix(1, 0, 0, 1, 1263, 22)"><g clip-path="url(#7157fd3727)"><g clip-path="url(#1e19b33de4)"><g clip-path="url(#84e6ae1f9a)"><path fill="#ffffff" d="M 0.640625 0.773438 L 223.933594 0.773438 L 223.933594 112.421875 L 0.640625 112.421875 Z M 0.640625 0.773438 " fill-opacity="1" fill-rule="nonzero"/></g></g></g></g></g></g><g clip-path="url(#cd4d538084)"><g clip-path="url(#306a527f2b)"><path stroke-linecap="butt" transform="matrix(0.583735, 0, 0, 0.583735, 1263.641874, 22.774449)" fill="none" stroke-linejoin="miter" d="M 286.883094 -0.00173357 C 339.694978 -0.00173357 382.509275 42.812563 382.509275 95.624447 C 382.509275 148.436331 339.694978 191.250628 286.883094 191.250628 L 95.630733 191.250628 C 42.818849 191.250628 0.00455222 148.436331 0.00455222 95.624447 C 0.00455222 42.812563 42.818849 -0.00173357 95.630733 -0.00173357 Z M 286.883094 -0.00173357 " stroke="#ffffff" stroke-width="10.275515" stroke-opacity="1" stroke-miterlimit="4"/></g></g><g transform="matrix(1, 0, 0, 1, 1309, 37)"><g clip-path="url(#67a0b4375f)"><g fill="#000000" fill-opacity="1"><g transform="translate(1.010516, 63.933617)"><g><path d="M 21.125 -32.28125 C 25.59375 -32.238281 29.394531 -30.628906 32.53125 -27.453125 C 35.664062 -24.273438 37.210938 -20.472656 37.171875 -16.046875 C 37.128906 -11.578125 35.519531 -7.773438 32.34375 -4.640625 C 29.164062 -1.503906 25.363281 0.0390625 20.9375 0 C 17.132812 0 13.726562 -1.234375 10.71875 -3.703125 L 10.71875 0 L 1.9375 0 L 1.875 -43.75 L 10.65625 -43.75 L 10.65625 -28.453125 C 13.664062 -31.003906 17.15625 -32.28125 21.125 -32.28125 Z M 26.640625 -10.46875 C 28.148438 -11.96875 28.945312 -13.847656 29.03125 -16.109375 C 29.03125 -18.242188 28.253906 -20.125 26.703125 -21.75 C 25.160156 -23.300781 23.28125 -24.078125 21.0625 -24.078125 C 18.882812 -24.078125 17.003906 -23.320312 15.421875 -21.8125 C 13.878906 -20.269531 13.109375 -18.390625 13.109375 -16.171875 C 13.015625 -13.992188 13.765625 -12.113281 15.359375 -10.53125 C 16.859375 -9.03125 18.738281 -8.238281 21 -8.15625 C 23.21875 -8.15625 25.097656 -8.925781 26.640625 -10.46875 Z M 26.640625 -10.46875 "/></g></g></g><g fill="#000000" fill-opacity="1"><g transform="translate(39.177799, 63.933617)"><g><path d="M 32.96875 -14.734375 C 33.007812 -13.859375 33.007812 -13.335938 32.96875 -13.171875 L 9.40625 -13.234375 C 9.738281 -12.265625 10.34375 -11.34375 11.21875 -10.46875 C 12.851562 -8.925781 14.734375 -8.15625 16.859375 -8.15625 C 19.117188 -8.238281 21 -9.03125 22.5 -10.53125 L 22.75 -10.78125 L 30.90625 -8.21875 C 29.101562 -5.414062 27.222656 -3.40625 25.265625 -2.1875 C 23.046875 -0.769531 20.265625 -0.0390625 16.921875 0 C 12.492188 0.0390625 8.691406 -1.503906 5.515625 -4.640625 C 2.335938 -7.773438 0.726562 -11.578125 0.6875 -16.046875 C 0.644531 -20.472656 2.191406 -24.273438 5.328125 -27.453125 C 8.460938 -30.628906 12.265625 -32.238281 16.734375 -32.28125 C 21.160156 -32.320312 24.960938 -30.773438 28.140625 -27.640625 C 31.316406 -24.503906 32.925781 -20.703125 32.96875 -16.234375 Z M 16.796875 -24.078125 C 14.585938 -24.078125 12.707031 -23.300781 11.15625 -21.75 C 10.363281 -20.875 9.800781 -20 9.46875 -19.125 L 24.203125 -19.125 C 23.867188 -20 23.28125 -20.894531 22.4375 -21.8125 C 20.851562 -23.320312 18.972656 -24.078125 16.796875 -24.078125 Z M 16.796875 -24.078125 "/></g></g></g><g fill="#000000" fill-opacity="1"><g transform="translate(70.638823, 63.933617)"><g><path d="M 25.140625 -32.28125 L 25.140625 -23.5 L 17.921875 -23.5 L 17.921875 0 L 9.15625 0 L 9.15625 -23.5 L 1.875 -23.5 L 1.875 -32.28125 L 9.15625 -32.28125 L 9.15625 -43.5625 L 17.921875 -43.5625 L 17.921875 -32.28125 Z M 25.140625 -32.28125 "/></g></g></g><g fill="#000000" fill-opacity="1"><g transform="translate(95.832705, 63.933617)"><g><path d="M 25.078125 -32.40625 L 33.84375 -32.40625 L 33.84375 0 L 25.078125 0 L 25.078125 -3.640625 C 23.273438 -1.296875 20.554688 -0.125 16.921875 -0.125 C 12.492188 -0.0820312 8.691406 -1.628906 5.515625 -4.765625 C 2.335938 -7.898438 0.726562 -11.703125 0.6875 -16.171875 C 0.644531 -20.597656 2.191406 -24.398438 5.328125 -27.578125 C 8.460938 -30.753906 12.265625 -32.363281 16.734375 -32.40625 C 20.410156 -32.40625 23.191406 -31.21875 25.078125 -28.84375 Z M 22.4375 -10.65625 C 23.988281 -12.195312 24.765625 -14.078125 24.765625 -16.296875 C 24.765625 -18.554688 23.96875 -20.4375 22.375 -21.9375 C 20.789062 -23.53125 18.929688 -24.285156 16.796875 -24.203125 C 14.585938 -24.203125 12.707031 -23.425781 11.15625 -21.875 C 9.613281 -20.332031 8.84375 -18.453125 8.84375 -16.234375 C 8.84375 -14.054688 9.632812 -12.175781 11.21875 -10.59375 C 12.769531 -9.050781 14.648438 -8.28125 16.859375 -8.28125 C 19.117188 -8.363281 20.976562 -9.15625 22.4375 -10.65625 Z M 22.4375 -10.65625 "/></g></g></g></g></g></g></g></svg>