<svg xmlns="http://www.w3.org/2000/svg" xmlns:xlink="http://www.w3.org/1999/xlink" width="3860" zoomAndPan="magnify" viewBox="0 0 2895 1619.99993" height="2160" preserveAspectRatio="xMidYMid meet" version="1.0"><defs><g/><clipPath id="2ba4e18b72"><path d="M 0.878906 0.878906 L 2547 0.878906 L 2547 967.121094 L 0.878906 967.121094 Z M 0.878906 0.878906 " clip-rule="nonzero"/></clipPath><clipPath id="178a68692d"><rect x="0" width="2547" y="0" height="968"/></clipPath><clipPath id="72b60aff33"><path d="M 2354.078125 41.839844 L 2733.9375 41.839844 L 2733.9375 231.769531 L 2354.078125 231.769531 Z M 2354.078125 41.839844 " clip-rule="nonzero"/></clipPath><clipPath id="bb94531637"><path d="M 2638.972656 41.839844 C 2691.417969 41.839844 2733.9375 84.355469 2733.9375 136.804688 C 2733.9375 189.253906 2691.417969 231.769531 2638.972656 231.769531 L 2449.042969 231.769531 C 2396.59375 231.769531 2354.078125 189.253906 2354.078125 136.804688 C 2354.078125 84.355469 2396.59375 41.839844 2449.042969 41.839844 Z M 2638.972656 41.839844 " clip-rule="nonzero"/></clipPath><clipPath id="e718ef46ce"><path d="M 0.078125 0.839844 L 379.9375 0.839844 L 379.9375 190.769531 L 0.078125 190.769531 Z M 0.078125 0.839844 " clip-rule="nonzero"/></clipPath><clipPath id="0d77a1bb9a"><path d="M 284.972656 0.839844 C 337.417969 0.839844 379.9375 43.355469 379.9375 95.804688 C 379.9375 148.253906 337.417969 190.769531 284.972656 190.769531 L 95.042969 190.769531 C 42.59375 190.769531 0.078125 148.253906 0.078125 95.804688 C 0.078125 43.355469 42.59375 0.839844 95.042969 0.839844 Z M 284.972656 0.839844 " clip-rule="nonzero"/></clipPath><clipPath id="36620e64da"><rect x="0" width="380" y="0" height="191"/></clipPath><clipPath id="b52da3f8d3"><path d="M 2354.089844 41.839844 L 2733.90625 41.839844 L 2733.90625 231.746094 L 2354.089844 231.746094 Z M 2354.089844 41.839844 " clip-rule="nonzero"/></clipPath><clipPath id="c83cfc7623"><path d="M 2638.949219 41.839844 C 2691.390625 41.839844 2733.90625 84.351562 2733.90625 136.792969 C 2733.90625 189.234375 2691.390625 231.746094 2638.949219 231.746094 L 2449.042969 231.746094 C 2396.601562 231.746094 2354.089844 189.234375 2354.089844 136.792969 C 2354.089844 84.351562 2396.601562 41.839844 2449.042969 41.839844 Z M 2638.949219 41.839844 " clip-rule="nonzero"/></clipPath><clipPath id="e556817c19"><rect x="0" width="224" y="0" height="141"/></clipPath><clipPath id="5989f49ef9"><rect x="0" width="2752" y="0" height="968"/></clipPath></defs><rect x="-289.5" width="3474" fill="#ffffff" y="-161.999993" height="1943.999916" fill-opacity="1"/><rect x="-289.5" width="3474" fill="#ffffff" y="-161.999993" height="1943.999916" fill-opacity="1"/><g transform="matrix(1, 0, 0, 1, 80, 326)"><g clip-path="url(#5989f49ef9)"><g clip-path="url(#2ba4e18b72)"><g transform="matrix(1, 0, 0, 1, -0.000000000000014211, -0.00000000000017053)"><g clip-path="url(#178a68692d)"><g fill="#000000" fill-opacity="1"><g transform="translate(1.064333, 762.616408)"><g><path d="M 295.4375 -381.84375 L 398.828125 -381.84375 L 398.828125 0 L 295.4375 0 L 295.4375 -42.84375 C 274.257812 -15.269531 242.253906 -1.484375 199.421875 -1.484375 C 147.222656 -0.984375 102.414062 -19.195312 65 -56.125 C 27.570312 -93.0625 8.613281 -137.867188 8.125 -190.546875 C 7.632812 -242.742188 25.851562 -287.550781 62.78125 -324.96875 C 99.707031 -362.394531 144.515625 -381.351562 197.203125 -381.84375 C 240.523438 -381.84375 273.269531 -367.8125 295.4375 -339.75 Z M 264.40625 -125.5625 C 282.625 -143.78125 291.734375 -165.9375 291.734375 -192.03125 C 291.734375 -218.613281 282.378906 -240.769531 263.671875 -258.5 C 244.960938 -277.207031 223.050781 -286.070312 197.9375 -285.09375 C 171.84375 -285.09375 149.6875 -275.984375 131.46875 -257.765625 C 113.25 -239.546875 104.140625 -217.390625 104.140625 -191.296875 C 104.140625 -165.691406 113.492188 -143.53125 132.203125 -124.8125 C 150.421875 -106.601562 172.578125 -97.5 198.671875 -97.5 C 225.265625 -98.476562 247.175781 -107.832031 264.40625 -125.5625 Z M 264.40625 -125.5625 "/></g></g></g><g fill="#000000" fill-opacity="1"><g transform="translate(422.055516, 762.616408)"><g><path d="M 125.5625 -513.3125 L 125.5625 0 L 22.15625 0 L 22.15625 -513.3125 Z M 125.5625 -513.3125 "/></g></g><g transform="translate(569.771728, 762.616408)"><g><path d="M 295.4375 -381.84375 L 398.828125 -381.84375 L 398.828125 0 L 295.4375 0 L 295.4375 -42.84375 C 274.257812 -15.269531 242.253906 -1.484375 199.421875 -1.484375 C 147.222656 -0.984375 102.414062 -19.195312 65 -56.125 C 27.570312 -93.0625 8.613281 -137.867188 8.125 -190.546875 C 7.632812 -242.742188 25.851562 -287.550781 62.78125 -324.96875 C 99.707031 -362.394531 144.515625 -381.351562 197.203125 -381.84375 C 240.523438 -381.84375 273.269531 -367.8125 295.4375 -339.75 Z M 264.40625 -125.5625 C 282.625 -143.78125 291.734375 -165.9375 291.734375 -192.03125 C 291.734375 -218.613281 282.378906 -240.769531 263.671875 -258.5 C 244.960938 -277.207031 223.050781 -286.070312 197.9375 -285.09375 C 171.84375 -285.09375 149.6875 -275.984375 131.46875 -257.765625 C 113.25 -239.546875 104.140625 -217.390625 104.140625 -191.296875 C 104.140625 -165.691406 113.492188 -143.53125 132.203125 -124.8125 C 150.421875 -106.601562 172.578125 -97.5 198.671875 -97.5 C 225.265625 -98.476562 247.175781 -107.832031 264.40625 -125.5625 Z M 264.40625 -125.5625 "/></g></g></g><g fill="#000000" fill-opacity="1"><g transform="translate(990.762868, 762.616408)"><g><path d="M 296.171875 -380.375 L 296.171875 -276.96875 L 211.234375 -276.96875 L 211.234375 0 L 107.828125 0 L 107.828125 -276.96875 L 22.15625 -276.96875 L 22.15625 -380.375 L 107.828125 -380.375 L 107.828125 -513.3125 L 211.234375 -513.3125 L 211.234375 -380.375 Z M 296.171875 -380.375 "/></g></g><g transform="translate(1309.091306, 762.616408)"><g><path d="M 124.8125 -514.78125 L 124.8125 -427.640625 L 22.15625 -427.640625 L 22.15625 -514.78125 Z M 125.5625 -379.625 L 125.5625 0 L 22.15625 0 L 22.15625 -379.625 Z M 125.5625 -379.625 "/></g></g></g><g fill="#000000" fill-opacity="1"><g transform="translate(1456.807499, 762.616408)"><g><path d="M 125.5625 -323.5 C 133.925781 -347.132812 147.957031 -363.628906 167.65625 -372.984375 C 186.863281 -382.335938 215.671875 -387.015625 254.078125 -387.015625 L 254.078125 -281.390625 C 216.648438 -281.390625 185.378906 -268.59375 160.265625 -243 C 137.128906 -220.34375 125.5625 -195.472656 125.5625 -168.390625 L 125.5625 0 L 22.15625 0 L 22.15625 -380.375 L 125.5625 -380.375 Z M 125.5625 -323.5 "/></g></g></g><g fill="#000000" fill-opacity="1"><g transform="translate(1704.232083, 762.616408)"><g><path d="M 197.203125 -380.375 C 249.890625 -380.863281 294.695312 -362.644531 331.625 -325.71875 C 369.039062 -288.289062 387.75 -243.484375 387.75 -191.296875 C 388.238281 -138.609375 370.019531 -93.800781 333.09375 -56.875 C 296.164062 -19.445312 251.609375 -0.488281 199.421875 0 C 146.734375 0.488281 101.675781 -17.726562 64.25 -54.65625 C 26.832031 -91.582031 8.125 -136.390625 8.125 -189.078125 C 7.632812 -241.765625 25.851562 -286.570312 62.78125 -323.5 C 99.707031 -360.914062 144.515625 -379.875 197.203125 -380.375 Z M 264.40625 -124.078125 C 282.625 -142.296875 291.734375 -164.453125 291.734375 -190.546875 C 291.734375 -216.148438 282.378906 -238.3125 263.671875 -257.03125 C 244.960938 -274.75 222.804688 -283.609375 197.203125 -283.609375 C 171.597656 -283.609375 149.6875 -274.5 131.46875 -256.28125 C 113.25 -237.082031 104.140625 -214.925781 104.140625 -189.8125 C 104.140625 -164.207031 113.492188 -142.050781 132.203125 -123.34375 C 150.421875 -105.125 172.578125 -96.015625 198.671875 -96.015625 C 225.265625 -97.003906 247.175781 -106.359375 264.40625 -124.078125 Z M 264.40625 -124.078125 "/></g></g></g><g fill="#000000" fill-opacity="1"><g transform="translate(2100.111618, 762.616408)"><g><path d="M 284.359375 0 L 161.015625 -147.71875 L 125.5625 -113 L 125.5625 0 L 22.15625 0 L 22.15625 -513.3125 L 125.5625 -513.3125 L 125.5625 -259.234375 L 246.6875 -380.375 L 392.921875 -379.625 L 233.390625 -220.828125 L 421.734375 0 Z M 284.359375 0 "/></g></g></g></g></g></g><g clip-path="url(#72b60aff33)"><g clip-path="url(#bb94531637)"><g transform="matrix(1, 0, 0, 1, 2354, 41)"><g clip-path="url(#36620e64da)"><g clip-path="url(#e718ef46ce)"><g clip-path="url(#0d77a1bb9a)"><path fill="#ffffff" d="M 0.078125 0.839844 L 379.933594 0.839844 L 379.933594 190.769531 L 0.078125 190.769531 Z M 0.078125 0.839844 " fill-opacity="1" fill-rule="nonzero"/></g></g></g></g></g></g><g clip-path="url(#b52da3f8d3)"><g clip-path="url(#c83cfc7623)"><path stroke-linecap="butt" transform="matrix(1.65496, 0, 0, 1.65496, 2354.078224, 41.840408)" fill="none" stroke-linejoin="miter" d="M 172.131666 -0.000340932 C 203.819085 -0.000340932 229.508908 25.687121 229.508908 57.374541 C 229.508908 89.06196 203.819085 114.749422 172.131666 114.749422 L 57.381903 114.749422 C 25.694484 114.749422 0.0070212 89.06196 0.0070212 57.374541 C 0.0070212 25.687121 25.694484 -0.000340932 57.381903 -0.000340932 Z M 172.131666 -0.000340932 " stroke="#000000" stroke-width="3.625465" stroke-opacity="1" stroke-miterlimit="4"/></g></g><g transform="matrix(1, 0, 0, 1, 2432, 66)"><g clip-path="url(#e556817c19)"><g fill="#000000" fill-opacity="1"><g transform="translate(0.936021, 111.034505)"><g><path d="M 35.9375 -54.921875 C 43.539062 -54.847656 50.007812 -52.109375 55.34375 -46.703125 C 60.675781 -41.304688 63.304688 -34.835938 63.234375 -27.296875 C 63.160156 -19.691406 60.425781 -13.222656 55.03125 -7.890625 C 49.625 -2.554688 43.15625 0.0703125 35.625 0 C 29.144531 0 23.347656 -2.097656 18.234375 -6.296875 L 18.234375 0 L 3.3125 0 L 3.203125 -74.4375 L 18.125 -74.4375 L 18.125 -48.421875 C 23.25 -52.753906 29.1875 -54.921875 35.9375 -54.921875 Z M 45.328125 -17.8125 C 47.878906 -20.363281 49.226562 -23.5625 49.375 -27.40625 C 49.375 -31.03125 48.054688 -34.226562 45.421875 -37 C 42.796875 -39.632812 39.597656 -40.953125 35.828125 -40.953125 C 32.128906 -40.953125 28.929688 -39.671875 26.234375 -37.109375 C 23.597656 -34.484375 22.28125 -31.285156 22.28125 -27.515625 C 22.144531 -23.816406 23.425781 -20.617188 26.125 -17.921875 C 28.6875 -15.359375 31.882812 -14.003906 35.71875 -13.859375 C 39.488281 -13.859375 42.691406 -15.175781 45.328125 -17.8125 Z M 45.328125 -17.8125 "/></g></g></g><g fill="#000000" fill-opacity="1"><g transform="translate(65.88253, 111.034505)"><g><path d="M 56.09375 -25.0625 C 56.164062 -23.570312 56.164062 -22.679688 56.09375 -22.390625 L 16 -22.5 C 16.5625 -20.863281 17.59375 -19.300781 19.09375 -17.8125 C 21.863281 -15.175781 25.0625 -13.859375 28.6875 -13.859375 C 32.519531 -14.003906 35.71875 -15.359375 38.28125 -17.921875 L 38.703125 -18.34375 L 52.578125 -13.96875 C 49.515625 -9.207031 46.3125 -5.796875 42.96875 -3.734375 C 39.207031 -1.316406 34.484375 -0.0703125 28.796875 0 C 21.253906 0.0703125 14.785156 -2.554688 9.390625 -7.890625 C 3.984375 -13.222656 1.242188 -19.691406 1.171875 -27.296875 C 1.097656 -34.835938 3.726562 -41.304688 9.0625 -46.703125 C 14.394531 -52.109375 20.863281 -54.847656 28.46875 -54.921875 C 36.007812 -54.992188 42.476562 -52.363281 47.875 -47.03125 C 53.28125 -41.695312 56.019531 -35.226562 56.09375 -27.625 Z M 28.578125 -40.953125 C 24.804688 -40.953125 21.609375 -39.632812 18.984375 -37 C 17.628906 -35.507812 16.671875 -34.019531 16.109375 -32.53125 L 41.15625 -32.53125 C 40.59375 -34.019531 39.597656 -35.546875 38.171875 -37.109375 C 35.472656 -39.671875 32.273438 -40.953125 28.578125 -40.953125 Z M 28.578125 -40.953125 "/></g></g></g><g fill="#000000" fill-opacity="1"><g transform="translate(119.418081, 111.034505)"><g><path d="M 42.765625 -54.921875 L 42.765625 -39.984375 L 30.5 -39.984375 L 30.5 0 L 15.5625 0 L 15.5625 -39.984375 L 3.203125 -39.984375 L 3.203125 -54.921875 L 15.5625 -54.921875 L 15.5625 -74.109375 L 30.5 -74.109375 L 30.5 -54.921875 Z M 42.765625 -54.921875 "/></g></g></g><g fill="#000000" fill-opacity="1"><g transform="translate(162.289182, 111.034505)"><g><path d="M 42.65625 -55.140625 L 57.578125 -55.140625 L 57.578125 0 L 42.65625 0 L 42.65625 -6.1875 C 39.601562 -2.207031 34.984375 -0.21875 28.796875 -0.21875 C 21.253906 -0.144531 14.785156 -2.773438 9.390625 -8.109375 C 3.984375 -13.441406 1.242188 -19.910156 1.171875 -27.515625 C 1.097656 -35.046875 3.726562 -41.515625 9.0625 -46.921875 C 14.394531 -52.328125 20.863281 -55.066406 28.46875 -55.140625 C 34.726562 -55.140625 39.457031 -53.109375 42.65625 -49.046875 Z M 38.171875 -18.125 C 40.804688 -20.757812 42.125 -23.957031 42.125 -27.71875 C 42.125 -31.5625 40.773438 -34.765625 38.078125 -37.328125 C 35.367188 -40.023438 32.203125 -41.300781 28.578125 -41.15625 C 24.804688 -41.15625 21.609375 -39.84375 18.984375 -37.21875 C 16.347656 -34.582031 15.03125 -31.382812 15.03125 -27.625 C 15.03125 -23.925781 16.382812 -20.722656 19.09375 -18.015625 C 21.71875 -15.390625 24.914062 -14.078125 28.6875 -14.078125 C 32.519531 -14.222656 35.679688 -15.570312 38.171875 -18.125 Z M 38.171875 -18.125 "/></g></g></g></g></g></g></g></svg>